<svg id="Ebene_1" data-name="Ebene 1" xmlns="http://www.w3.org/2000/svg" xmlns:xlink="http://www.w3.org/1999/xlink" viewBox="0 0 1920 1080"><defs><style>.cls-1,.cls-3,.cls-5,.cls-7{fill:none;}.cls-2{fill:#fff;}.cls-3,.cls-5,.cls-7{stroke:#2b2b2a;}.cls-3{stroke-linejoin:round;}.cls-3,.cls-5{stroke-width:2.5px;}.cls-4{fill:#ff78aa;}.cls-6{clip-path:url(#clip-path);}.cls-7{stroke-width:2.51px;}.cls-11,.cls-14,.cls-18,.cls-8{font-size:142.08px;fill:#2b2b2a;font-family:Yellix-Medium, Yellix;font-weight:500;}.cls-18,.cls-9{letter-spacing:0.02em;}.cls-10{letter-spacing:0.02em;}.cls-11{letter-spacing:0.01em;}.cls-12{letter-spacing:0.01em;}.cls-13{letter-spacing:0em;}.cls-14{letter-spacing:-0.08em;}.cls-15{letter-spacing:0em;}.cls-16{letter-spacing:0.01em;}.cls-17{letter-spacing:-0.06em;}.cls-19{letter-spacing:-0.07em;}.cls-20{letter-spacing:0.03em;}.cls-21{letter-spacing:0.03em;}.cls-22{letter-spacing:0.03em;}.cls-23{letter-spacing:0em;}</style><clipPath id="clip-path"><rect class="cls-1" x="260.13" y="34.06" width="1940.41" height="974.55"/></clipPath></defs><polyline class="cls-2" points="850.44 202.03 830.92 156.99 751.27 145.91 677.28 149.04 631.75 198.41 575.14 222.39 581.16 256.76"/><polyline class="cls-3" points="850.44 202.03 830.92 156.99 751.27 145.91 677.28 149.04 631.75 198.41 575.14 222.39 581.16 256.76"/><polyline class="cls-4" points="806.51 221.68 793.98 215.09 770.99 218.56 757.44 194.61 729.26 188.22 698.82 189.8 656.33 226.76 652.56 270.21"/><polyline class="cls-5" points="806.51 221.68 793.98 215.09 770.99 218.56 757.44 194.61 729.26 188.22 698.82 189.8 656.33 226.76 652.56 270.21"/><line class="cls-5" x1="873.89" y1="791.6" x2="956.07" y2="796.74"/><g class="cls-6"><path class="cls-2" d="M260.36,662.94l839.27-157.66c285.24-58.47-22-124.67-28.35-101.34-4.67,17.09-58.46-78.4-87.16,10.63s-236,156.61-236,156.61"/><path class="cls-5" d="M260.36,662.94l839.27-157.66c285.24-58.47-22-124.67-28.35-101.34-4.67,17.09-58.46-78.4-87.16,10.63s-236,156.61-236,156.61"/></g><line class="cls-5" x1="422.86" y1="964.75" x2="975.17" y2="900.55"/><polyline class="cls-2" points="1347.09 404.21 1399.59 431.58 1494.07 383.15 1585.1 400.16"/><polyline class="cls-7" points="1347.09 404.21 1399.59 431.58 1494.07 383.15 1585.1 400.16"/><polyline class="cls-5" points="1238.09 833.97 994.27 857.86 413.92 909.79"/><polyline class="cls-2" points="592.5 410.19 741.06 442.75 660.54 477.87"/><polyline class="cls-5" points="592.5 410.19 741.06 442.75 660.54 477.87"/><text class="cls-8" transform="translate(702.87 285.7) scale(1.04 1)"><tspan class="cls-9">E</tspan><tspan class="cls-10" x="77.29" y="0">I</tspan><tspan x="113.95" y="0">N</tspan></text><text class="cls-8" transform="translate(924.28 274.47) scale(1.04 1)"> </text><text class="cls-11" transform="translate(702.13 384.44) scale(1.04 1)"><tspan xml:space="preserve">  </tspan><tspan class="cls-12" x="69.05" y="0"> </tspan><tspan x="103.43" y="0" xml:space="preserve">  </tspan><tspan class="cls-13" x="172.48" y="0"> </tspan></text><text class="cls-8" transform="translate(917.91 384.44) scale(1.04 1)"> </text><text class="cls-14" transform="translate(954.32 375.21) scale(1.04 1)">T<tspan class="cls-9" x="72.6" y="0">A</tspan><tspan class="cls-15" x="169.92" y="0">G</tspan></text><text class="cls-8" transform="translate(1246.77 384.44) scale(1.04 1)"> </text><text class="cls-8" transform="translate(702.13 445.26) scale(1.04 1)"><tspan class="cls-16" xml:space="preserve">  </tspan><tspan class="cls-17" x="68.2" y="0"> </tspan><tspan x="91.78" y="0"> </tspan></text><text class="cls-8" transform="translate(824.97 439.71) scale(1.04 1)"> </text><text class="cls-18" transform="translate(805.73 437.72) scale(1.04 1)">I<tspan class="cls-15" x="36.8" y="0">M</tspan></text><text class="cls-8" transform="translate(972.23 439.71) scale(1.04 1)"> </text><text class="cls-8" transform="translate(702.87 549.7) scale(1.05 1)"><tspan class="cls-19">P</tspan><tspan class="cls-20" x="73.45" y="0">A</tspan><tspan class="cls-21" x="172.06" y="0">L</tspan><tspan class="cls-22" x="253.89" y="0">A</tspan><tspan class="cls-23" x="352.5" y="0">S</tspan><tspan x="437.6" y="0">T</tspan></text><g class="cls-6"><path class="cls-2" d="M2200.31,35.29,1361,193c-19,3.9-19.76-3-33.79,1-6.16,1.73-27.54,24.88-32.81,26.61-7.9,2.6-13.25-5.35-26,.32-117,52,115.47,93.47,121,73.41,4.67-17.09,58.47,78.4,87.17-10.63s236-156.61,236-156.61"/><path class="cls-5" d="M2200.31,35.29,1361,193c-19,3.9-19.76-3-33.79,1-6.16,1.73-27.54,24.88-32.81,26.61-7.9,2.6-13.25-5.35-26,.32-117,52,115.47,93.47,121,73.41,4.67-17.09,58.47,78.4,87.17-10.63s236-156.61,236-156.61"/></g><polygon class="cls-4" points="874.9 278.08 929.54 259.01 928.4 285.04 883.76 297.15 874.9 278.08"/><g class="cls-6"><path class="cls-2" d="M1260.13,251.93s-35,4.63-40.78,5.62c-75.16,12.91-201.86,20.08-274.77,25.6-35.23,2.68,10.13-13.27-1.2-24-9.54-9.09,6.69-31.49,76.28-13.31,117.36,30.64,240.47,6.14,240.47,6.14"/><path class="cls-5" d="M1260.13,251.93s-35,4.63-40.78,5.62c-75.16,12.91-201.86,20.08-274.77,25.6-35.23,2.68,10.13-13.27-1.2-24-9.54-9.09,6.69-31.49,76.28-13.31C1137,276.43,1260.13,251.93,1260.13,251.93Z"/></g><polygon class="cls-4" points="812.07 413.02 849.63 414.58 852.82 436.61 809.73 441.69 812.07 413.02"/><polygon class="cls-4" points="1194.86 309.17 1244.18 293.61 1243.05 311.06 1199.96 319.19 1194.86 309.17"/><path class="cls-2" d="M714,864.94l37.89-36.23c10.65-10.23,15.83-17.05,15.83-24.86,0-9.66-8-16.62-18.94-16.62-12.73,0-21.16,8.24-20.72,21.17H713.68c-.6-20.75,14.65-34.39,35.37-34.39,19.24,0,33.3,12.37,33.3,29.56,0,11.5-7.85,22.3-20.28,33.67l-25.45,24.43h46.76v13.22H714Zm156.73-57.4c0,6.82-2.81,15.92-8.43,24.58l-27.68,42.77H818.31L842,839.08a38.56,38.56,0,0,1-8.88,1.14c-17.91,0-33.45-14.06-33.45-32.68,0-18.47,16-33.53,35.52-33.53S870.7,789.07,870.7,807.54Zm-13.76.15c0-11.37-9.62-20.6-21.76-20.6s-21.75,9.23-21.75,20.6c0,11.22,10.06,20.74,21.9,20.74a40.61,40.61,0,0,0,15.54-3C854.72,819.05,856.94,812.8,856.94,807.69Zm9.62,59.1c0-5.26,4.29-9.52,10.07-9.52a9.76,9.76,0,0,1,10.06,9.52c0,5.4-4.44,9.52-10.06,9.52C870.85,876.31,866.56,872.19,866.56,866.79Zm70-91.35h17l37,79.41,37.89-79.41H1043v99.45h-14.35V802.57l-33.75,72.32h-10.5l-33.45-72.32v72.32H936.56Zm194.18,30.12v69.33H1117V864.8c-4,6.54-14.06,11.51-24.12,11.51-20,0-35.22-15.77-35.22-36.09s15.24-36.09,35.22-36.09c10.21,0,20.28,5,24.12,11.51V805.56ZM1117,852.44v-24.3c-3.84-6.81-12.58-11.65-21.46-11.65-13.91,0-24.56,10.09-24.56,23.73S1081.6,864,1095.51,864C1104.39,864,1113.13,859.12,1117,852.44Zm47.36-69.19a9.18,9.18,0,1,1-9.17-8.81C1160,774.44,1164.33,778.56,1164.33,783.25ZM1162,805.56v69.33H1148.2V805.56Z"/><g class="cls-6"><path class="cls-2" d="M714,974.94l37.89-36.23c10.65-10.23,15.83-17.05,15.83-24.86,0-9.66-8-16.62-18.94-16.62-12.73,0-21.16,8.24-20.72,21.17H713.68c-.6-20.75,14.65-34.39,35.37-34.39,19.24,0,33.3,12.37,33.3,29.56,0,11.5-7.85,22.3-20.28,33.67l-25.45,24.43h46.76v13.22H714Zm77-39.78c0-31.25,14.21-51.15,38.33-51.15s38.18,19.9,38.18,51.15-14.21,51.15-38.18,51.15S791,966.28,791,935.16Zm61.86,0c0-24.86-8.73-37.93-23.53-37.93S805.6,910.3,805.6,935.16,814.33,973,829.28,973,852.81,959.88,852.81,935.16Zm24,39.78,37.88-36.23c10.66-10.23,15.84-17.05,15.84-24.86,0-9.66-8-16.62-18.94-16.62-12.73,0-21.17,8.24-20.72,21.17H876.49C875.9,897.65,891.14,884,911.86,884c19.24,0,33.3,12.37,33.3,29.56,0,11.5-7.84,22.3-20.27,33.67l-25.46,24.43H946.2v13.22H876.79ZM1026,972.38v12.51H956.93V972.38h28V904.19l-23.53,18.9V906.46l27.82-21h9.92v86.94Z"/></g><line class="cls-3" x1="622.75" y1="325.68" x2="619.52" y2="302.28"/><line class="cls-3" x1="612.33" y1="553.56" x2="591" y2="470.87"/><polyline class="cls-2" points="639.47 559.53 607.84 431.36 597.93 383.35"/><polyline class="cls-3" points="639.47 559.53 607.84 431.36 597.93 383.35"/><polyline class="cls-2" points="602.86 307.25 644.25 513.51 647.6 557.95"/><polyline class="cls-3" points="602.86 307.25 644.25 513.51 647.6 557.95"/><polyline class="cls-4" points="639.65 398.52 657.39 387.52 681.82 390.99 696.23 367.05 726.18 360.65 758.53 362.23 803.69 399.2 807.7 442.64"/><polyline class="cls-5" points="639.65 398.52 657.39 387.52 681.82 390.99 696.23 367.05 726.18 360.65 758.53 362.23 803.69 399.2 807.7 442.64"/><line class="cls-5" x1="764.6" y1="668.36" x2="899.61" y2="656.28"/><line class="cls-5" x1="754.65" y1="718.1" x2="899.72" y2="718.1"/><line class="cls-5" x1="746.83" y1="722.36" x2="891.91" y2="724.5"/><line class="cls-5" x1="730.84" y1="726.98" x2="893.57" y2="730.54"/><polyline class="cls-2" points="772.41 654.14 899.61 640.64 929.81 643.13"/><polyline class="cls-5" points="772.41 654.14 899.61 640.64 929.81 643.13"/><line class="cls-5" x1="991.47" y1="568.93" x2="750.53" y2="614.28"/><polyline class="cls-2" points="808.46 650.42 809.37 619.68 817.54 618.61"/><polyline class="cls-5" points="808.46 650.42 809.37 619.68 817.54 618.61"/><polyline class="cls-2" points="830.96 647.94 831.04 616.48 839.92 615.06"/><polyline class="cls-5" points="830.96 647.94 831.04 616.48 839.92 615.06"/><polyline class="cls-2" points="851.65 644.9 852.01 613.64 861.96 611.86"/><polyline class="cls-5" points="851.65 644.9 852.01 613.64 861.96 611.86"/><polyline class="cls-2" points="879.51 642.8 880.07 608.31 890.38 606.53"/><polyline class="cls-5" points="879.51 642.8 880.07 608.31 890.38 606.53"/><g class="cls-6"><path class="cls-2" d="M907.5,641.56c0-1.42-.07-37.87-.07-37.87l11-1.78"/><path class="cls-5" d="M907.5,641.56c0-1.42-.07-37.87-.07-37.87l11-1.78"/></g><line class="cls-5" x1="774.81" y1="674.57" x2="773.48" y2="718.1"/><line class="cls-5" x1="795.68" y1="672.35" x2="794.8" y2="715.88"/><line class="cls-5" x1="819.22" y1="671.91" x2="817.45" y2="717.66"/><line class="cls-5" x1="843.21" y1="670.58" x2="841.88" y2="718.1"/><line class="cls-5" x1="869.41" y1="667.47" x2="869.41" y2="718.1"/><line class="cls-5" x1="906.72" y1="664.8" x2="906.72" y2="716.77"/><line class="cls-5" x1="929.8" y1="666.14" x2="912.93" y2="665.25"/><line class="cls-5" x1="983.55" y1="771.4" x2="984.89" y2="631.94"/><line class="cls-5" x1="1007.54" y1="734.09" x2="1006.21" y2="571.09"/><line class="cls-5" x1="1006.56" y1="566.03" x2="1166.45" y2="593.39"/><line class="cls-5" x1="1081.18" y1="558.21" x2="1222.78" y2="533.21"/><g class="cls-6"><path class="cls-2" d="M1218.23,545.05v88.54c53.29-10-28.86,30.67-28.86,30.67"/><path class="cls-5" d="M1218.23,545.05v88.54c53.29-10-28.86,30.67-28.86,30.67"/></g><line class="cls-5" x1="1160.76" y1="598.01" x2="1162.72" y2="724.5"/><g class="cls-6"><path class="cls-4" d="M1134.09,769.26l-4.26-209.63s3.37-24.34,17.58-40S1171,503.49,1171,503.49"/><path class="cls-5" d="M1134.09,769.26l-4.26-209.63s3.37-24.34,17.58-40S1171,503.49,1171,503.49"/></g><line class="cls-5" x1="1324.92" y1="563.19" x2="1336.29" y2="752.21"/><line class="cls-5" x1="1285.12" y1="554.66" x2="1324.21" y2="560.34"/><line class="cls-5" x1="1327.05" y1="559.63" x2="1368.26" y2="542.58"/><line class="cls-5" x1="1103.2" y1="600.85" x2="1078.33" y2="597.3"/><line class="cls-5" x1="1079.04" y1="730.18" x2="1079.04" y2="600.14"/><line class="cls-5" x1="1084.73" y1="601.56" x2="1086.15" y2="730.18"/><line class="cls-5" x1="1094.68" y1="602.98" x2="1095.39" y2="728.76"/><line class="cls-5" x1="606.48" y1="853.12" x2="1404.15" y2="767.84"/><polyline class="cls-2" points="675.77 737.65 984.6 770.19 601.15 794.53"/><polyline class="cls-5" points="675.77 737.65 984.6 770.19 601.15 794.53"/><polyline class="cls-2" points="1128.9 788.58 1121.4 741.58 1094.7 727.72"/><polyline class="cls-5" points="1128.9 788.58 1121.4 741.58 1094.7 727.72"/><polyline class="cls-2" points="1133.05 771.4 1140.16 738 1154.7 709.24"/><polyline class="cls-5" points="1133.05 771.4 1140.16 738 1154.7 709.24"/><line class="cls-5" x1="1159.9" y1="740.9" x2="1321.36" y2="747.24"/><line class="cls-5" x1="945.45" y1="730.89" x2="1002.3" y2="734.44"/><line class="cls-5" x1="755.71" y1="618.61" x2="753.58" y2="718.1"/><line class="cls-5" x1="759.98" y1="618.61" x2="1000.17" y2="573.84"/><polyline class="cls-2" points="1038.89 629.98 1038.54 598.01 1046.35 598.72"/><polyline class="cls-5" points="1038.89 629.98 1038.54 598.01 1046.35 598.72"/><polyline class="cls-2" points="1052.04 631.4 1052.75 600.14 1059.5 600.85"/><polyline class="cls-5" points="1052.04 631.4 1052.75 600.14 1059.5 600.85"/><polyline class="cls-2" points="1056.29 723.1 1059.49 710.3 1071.92 700.71 1070.5 683.3"/><polyline class="cls-5" points="1056.29 723.1 1059.49 710.3 1071.92 700.71 1070.5 683.3"/><polyline class="cls-2" points="1044.94 681.51 1051.34 698.92 1059.87 703.9"/><polyline class="cls-5" points="1044.94 681.51 1051.34 698.92 1059.87 703.9"/><polyline class="cls-5" points="1019.72 687.19 1028.24 700.69 1037.84 707.44 1040.33 718.1 1041.39 729.12"/><polyline class="cls-5" points="1029.68 649.24 1028.97 664.52 1037.15 674.83 1039.28 690.46 1038.21 707.51"/><polyline class="cls-2" points="1068.02 674.05 1059.85 679.38 1058.43 690.75"/><polyline class="cls-5" points="1068.02 674.05 1059.85 679.38 1058.43 690.75"/><polyline class="cls-2" points="1194.52 671.73 1188.74 704.15 1189.9 741.66"/><polyline class="cls-5" points="1194.52 671.73 1188.74 704.15 1189.9 741.66"/><line class="cls-5" x1="1176.75" y1="725.21" x2="1168.31" y2="669.69"/><polyline class="cls-2" points="1186.43 647.98 1177.99 665.3 1180.66 686.17"/><polyline class="cls-5" points="1186.43 647.98 1177.99 665.3 1180.66 686.17"/><polyline class="cls-2" points="1155.53 673.24 1141.66 689.66 1139 702.09"/><polyline class="cls-5" points="1155.53 673.24 1141.66 689.66 1139 702.09"/><polyline class="cls-2" points="1151.99 642.98 1168.76 680.35 1169.35 727.67"/><polyline class="cls-5" points="1151.99 642.98 1168.76 680.35 1169.35 727.67"/><polyline class="cls-2" points="1254.02 708.85 1247.81 721.28 1248.69 733.72"/><polyline class="cls-5" points="1254.02 708.85 1247.81 721.28 1248.69 733.72"/><polyline class="cls-2" points="1240.27 725.21 1238.49 686.57 1225.19 666.01"/><polyline class="cls-5" points="1240.27 725.21 1238.49 686.57 1225.19 666.01"/><polyline class="cls-2" points="1243.37 666.58 1258.92 666.58 1266.47 680.79 1259.81 689.67 1260.25 701.67 1250.48 701.22"/><polyline class="cls-5" points="1243.37 666.58 1258.92 666.58 1266.47 680.79 1259.81 689.67 1260.25 701.67 1250.48 701.22"/><line class="cls-5" x1="695.67" y1="723.79" x2="695.67" y2="696.43"/><polyline class="cls-2" points="695.96 734.75 675.41 721.29 682.16 700.34 679.32 691.81 685.36 682.92 690.34 673.33 699.93 672.62 707.39 688.25 711.3 696.07"/><polyline class="cls-5" points="695.96 734.75 675.41 721.29 682.16 700.34 679.32 691.81 685.36 682.92 690.34 673.33 699.93 672.62 707.39 688.25 711.3 696.07"/><g class="cls-6"><path class="cls-2" d="M729.78,722.36v-11l-9.44,3.56.91-11-5.73-13.07L724.8,689s1.78-9.48,8.86-8.63,12.46,15,12.46,15l.71,8.53L739,708.51"/><path class="cls-5" d="M729.78,722.36v-11l-9.44,3.56.91-11-5.73-13.07L724.8,689s1.78-9.48,8.86-8.63,12.46,15,12.46,15l.71,8.53L739,708.51"/></g><polyline class="cls-2" points="661.56 721.3 660.13 707.44 644.86 706.73 648.05 693.58 653.38 681.86 659.42 692.87 667.24 700.69 637.04 691.81 649.12 719.88 647.7 724.14"/><polyline class="cls-5" points="661.56 721.3 660.13 707.44 644.86 706.73 648.05 693.58 653.38 681.86 659.42 692.87 667.24 700.69 637.04 691.81 649.12 719.88 647.7 724.14"/><line class="cls-5" x1="1336.59" y1="267.39" x2="933.22" y2="381.37"/><polyline class="cls-5" points="810.77 412.31 1015.09 423.19 972.45 458.73 1221.16 440.96 1071.94 487.15"/><line class="cls-5" x1="1163.68" y1="806.33" x2="1305.41" y2="786.49"/><line class="cls-5" x1="1127.54" y1="406.64" x2="1265.98" y2="360.58"/><line class="cls-5" x1="1201.24" y1="420.82" x2="1267.85" y2="409.48"/><g class="cls-6"><path class="cls-2" d="M747,534.2s7.65-14.17,29.34-8.5A144.53,144.53,0,0,0,849.74,542"/><path class="cls-5" d="M747,534.2s7.65-14.17,29.34-8.5A144.53,144.53,0,0,0,849.74,542"/></g><polyline class="cls-2" points="1086.47 714.56 1074.66 722.26 1072.6 738.7"/><polyline class="cls-5" points="1086.47 714.56 1074.66 722.26 1072.6 738.7"/><line class="cls-5" x1="651.42" y1="701.2" x2="846.6" y2="683.74"/><line class="cls-5" x1="637.04" y1="773.11" x2="846.77" y2="773.11"/><polyline class="cls-5" points="650.77 529.19 726.65 568.75 843.36 523.11 914.94 527.47"/><line class="cls-5" x1="999.15" y1="554.3" x2="631.39" y2="621.08"/><polyline class="cls-5" points="715.63 672.44 716.14 630.84 727.95 629.29"/><polyline class="cls-5" points="747.47 669.36 747.47 626.21 760.31 624.16"/><polyline class="cls-5" points="780.86 665.25 781.37 620.05 795.75 617.48"/><polyline class="cls-5" points="817.84 661.65 818.35 614.4 833.25 611.83"/><polyline class="cls-5" points="857.9 660.11 857.9 607.72 873.83 605.15"/><line class="cls-5" x1="666.19" y1="710.19" x2="664.26" y2="773.11"/><line class="cls-5" x1="696.37" y1="706.98" x2="695.08" y2="769.9"/><line class="cls-5" x1="730.39" y1="706.34" x2="727.83" y2="772.47"/><line class="cls-5" x1="765.06" y1="704.41" x2="763.14" y2="773.11"/><line class="cls-5" x1="802.95" y1="699.92" x2="802.95" y2="773.11"/><line class="cls-5" x1="856.88" y1="696.07" x2="856.88" y2="771.19"/><line class="cls-5" x1="885.13" y1="690.91" x2="860.73" y2="689.62"/><line class="cls-5" x1="967.95" y1="850.16" x2="969.88" y2="648.56"/><line class="cls-5" x1="1002.62" y1="796.23" x2="1000.69" y2="560.6"/><line class="cls-5" x1="1001.21" y1="553.28" x2="1232.34" y2="592.83"/><line class="cls-5" x1="1010.61" y1="537.04" x2="1218.99" y2="576.39"/><line class="cls-5" x1="1109.07" y1="541.98" x2="1306.31" y2="507.05"/><g class="cls-6"><path class="cls-5" d="M1288.59,524.05v91.43c53.16-10.33-28.79,31.67-28.79,31.67"/></g><line class="cls-5" x1="1224.13" y1="599.5" x2="1226.95" y2="782.36"/><g class="cls-6"><path class="cls-5" d="M1171.73,840l-6.16-303s4.88-35.18,25.43-57.78,30.79-22.49,30.79-22.49"/></g><line class="cls-5" x1="1461.42" y1="549.17" x2="1477.86" y2="822.42"/><line class="cls-5" x1="1403.9" y1="536.84" x2="1460.4" y2="545.06"/><line class="cls-5" x1="1464.51" y1="544.03" x2="1524.09" y2="519.38"/><line class="cls-5" x1="1140.92" y1="603.61" x2="1104.96" y2="598.48"/><line class="cls-5" x1="1105.99" y1="790.58" x2="1105.99" y2="602.59"/><line class="cls-5" x1="1117.75" y1="604.64" x2="1119.81" y2="790.58"/><polyline class="cls-5" points="1165.57 841.94 1160.43 807.01 1142.97 776.19"/><polyline class="cls-5" points="1184.06 850.16 1194.34 801.88 1219.24 768.49"/><polyline class="cls-5" points="1036.47 795.2 1037.2 767.51 1046.44 767.51 1046.44 793.2"/><line class="cls-5" x1="1207.67" y1="808.82" x2="1432.64" y2="818.06"/><line class="cls-5" x1="638.58" y1="629.29" x2="635.5" y2="773.11"/><line class="cls-5" x1="644.75" y1="629.29" x2="992.89" y2="562.55"/><polyline class="cls-5" points="1026.89 643.68 1027.4 595.91 1038.7 597.96"/><polyline class="cls-5" points="1047.95 645.73 1047.43 599.5 1058.73 600.53"/><polyline class="cls-5" points="1066.95 647.78 1067.98 602.59 1077.74 603.61"/><polyline class="cls-5" points="1066.44 791.09 1071.06 772.6 1089.04 758.73 1086.98 733.56"/><polyline class="cls-5" points="1061.3 725.34 1070.55 750.51 1082.88 757.7"/><polyline class="cls-5" points="1025.86 729.45 1038.19 748.97 1052.06 758.73 1055.65 774.14 1057.19 790.06"/><polyline class="cls-5" points="1050 711.99 1048.98 734.08 1060.79 748.97 1063.87 771.57 1062.33 796.23"/><polyline class="cls-5" points="1272.92 702.49 1264.57 749.36 1266.29 792.01"/><line class="cls-5" x1="1247.24" y1="783.38" x2="1241.21" y2="736.31"/><polyline class="cls-5" points="1218.99 695.98 1193.95 724.23 1190.1 742.21"/><polyline class="cls-5" points="1209.6 653.4 1235.68 718.54 1235.04 787.24"/><polyline class="cls-5" points="1353.82 752.57 1344.83 770.54 1346.11 788.52"/><polyline class="cls-5" points="1339.05 783.38 1336.48 727.53 1317.86 698.63"/><polyline class="cls-5" points="1343.55 698.63 1366.02 698.63 1376.93 719.18 1367.3 732.02 1367.94 749.36 1353.82 748.72"/><polyline class="cls-5" points="1306.31 703.13 1296.03 703.13 1288.97 724.96 1283.84 745.5 1308.23 750 1319.15 730.74"/><line class="cls-5" x1="551.78" y1="781.33" x2="551.78" y2="741.78"/><polyline class="cls-5" points="546.13 758.22 532.26 755.65 532.26 747.43 528.15 735.1 536.88 722.26 544.07 708.39 557.94 707.37 568.73 729.97 574.38 741.27"/><polyline class="cls-5" points="601.09 779.28 601.09 763.35 593.38 760.27 588.76 752.57 590.81 741.27 593.9 730.99 604.68 722.26 624.71 740.24 625.74 752.57 614.44 759.24"/><polyline class="cls-5" points="502.47 777.74 500.41 757.7 478.33 756.68 482.95 737.67 490.65 720.72 499.39 736.64 510.69 747.94 467.03 735.1 484.49 775.68 482.44 781.84"/><polyline class="cls-5" points="1019.11 233.73 758.68 310.27 985.1 342.86"/><polyline class="cls-5" points="993.6 363.41 951.9 398.16 1306.31 372.48 1095.72 439.25"/><polyline class="cls-2" points="1246.18 585.67 1246.7 537.9 1256.51 536.68"/><polyline class="cls-5" points="1246.18 585.67 1246.7 537.9 1256.51 536.68"/><line class="cls-5" x1="1264.48" y1="534.52" x2="1264.73" y2="610.03"/><line class="cls-3" x1="603.7" y1="891.75" x2="635.37" y2="897.91"/><polyline class="cls-2" points="662.84 919.99 711.14 921.38 747.64 916.47 774.38 911.53"/><polyline class="cls-3" points="662.84 919.99 711.14 921.38 747.64 916.47 774.38 911.53"/><polyline class="cls-2" points="543.12 898.75 582.26 908.28 627.64 910.14"/><polyline class="cls-3" points="543.12 898.75 582.26 908.28 627.64 910.14"/><polyline class="cls-2" points="506.96 998.9 557.4 1007.36 612.11 1004.83"/><g class="cls-6"><polyline class="cls-3" points="506.96 998.9 557.4 1007.36 612.11 1004.83"/></g><line class="cls-5" x1="422.86" y1="964.75" x2="835.3" y2="916.81"/><polyline class="cls-7" points="660.54 477.87 816.43 498.06 603.84 566.8"/><polyline class="cls-2" points="771.59 373.54 790.9 371.67 816.61 367.21"/><polyline class="cls-3" points="771.59 373.54 790.9 371.67 816.61 367.21"/></svg>